<?xml version="1.0" standalone="no"?>
<!DOCTYPE svg PUBLIC "-//W3C//DTD SVG 20010904//EN"
 "http://www.w3.org/TR/2001/REC-SVG-20010904/DTD/svg10.dtd">
<svg version="1.0" xmlns="http://www.w3.org/2000/svg"
 width="222.000000pt" height="160.000000pt" viewBox="0 0 222.000000 160.000000"
 preserveAspectRatio="xMidYMid meet">

<g transform="translate(-.00000,160.000000) scale(0.100000,-0.100000)"
fill="#000000" stroke="none">
<path d="M1456 1585 c-3 -8 -17 -15 -31 -15 -14 0 -25 -4 -25 -10 0 -5 -11
-10 -25 -10 -14 0 -25 -5 -25 -11 0 -6 -6 -17 -14 -25 -8 -8 -19 -14 -25 -14
-6 0 -11 -7 -11 -15 0 -8 -4 -15 -10 -15 -5 0 -10 -11 -10 -25 0 -14 5 -25 10
-25 6 0 10 7 10 15 0 9 9 15 25 15 14 0 28 -7 31 -15 5 -11 22 -15 65 -15 33
0 59 -4 59 -10 0 -6 32 -10 75 -10 43 0 75 4 75 10 0 6 28 10 65 10 61 0 65 1
65 23 0 12 -11 31 -25 41 -26 20 -33 36 -14 36 14 0 39 -25 39 -39 0 -6 7 -11
15 -11 9 0 15 -9 15 -25 0 -16 6 -25 15 -25 9 0 15 -9 15 -25 0 -14 5 -25 10
-25 6 0 10 -11 10 -25 0 -16 6 -25 15 -25 12 0 15 -13 15 -55 0 -30 5 -55 10
-55 6 0 10 -22 10 -50 0 -38 4 -50 15 -50 12 0 15 -14 15 -65 0 -51 3 -65 15
-65 12 0 15 -14 15 -65 0 -37 4 -65 10 -65 6 0 10 -83 10 -230 0 -147 -4 -230
-10 -230 -5 0 -10 -11 -10 -25 0 -14 -7 -28 -15 -31 -10 -4 -15 -20 -15 -45 0
-21 -4 -39 -10 -39 -5 0 -10 -7 -10 -16 0 -9 -20 -36 -45 -60 -35 -35 -51 -44
-80 -44 -24 0 -35 -4 -35 -15 0 -11 -11 -15 -40 -15 -22 0 -40 -4 -40 -10 0
-5 -4 -10 -10 -10 -6 0 -10 35 -10 85 0 67 -3 87 -15 91 -11 5 -15 22 -15 70
0 50 -3 64 -15 64 -8 0 -15 5 -15 10 0 6 -16 10 -35 10 -19 0 -35 -4 -35 -10
0 -5 -7 -10 -15 -10 -12 0 -15 -14 -15 -65 0 -37 -4 -65 -10 -65 -6 0 -10 -37
-10 -90 0 -73 -3 -90 -15 -90 -8 0 -15 5 -15 10 0 6 -18 10 -40 10 -29 0 -40
4 -40 15 0 11 -11 15 -36 15 -35 0 -64 18 -64 39 0 6 -4 11 -10 11 -17 0 -50
34 -50 52 0 10 -4 18 -10 18 -5 0 -10 18 -10 40 0 22 -4 40 -10 40 -5 0 -10
11 -10 25 0 14 -7 28 -15 31 -22 9 -22 459 0 468 11 4 15 21 15 66 0 33 4 60
10 60 6 0 10 28 10 65 0 51 3 65 15 65 11 0 15 12 15 50 0 28 5 50 10 50 6 0
10 25 10 55 0 42 3 55 15 55 9 0 15 9 15 25 0 14 5 25 10 25 6 0 10 11 10 25
0 14 -4 25 -10 25 -5 0 -10 -11 -10 -24 0 -13 -7 -26 -15 -30 -8 -3 -15 -15
-15 -26 0 -11 -4 -20 -10 -20 -5 0 -10 -25 -10 -55 0 -42 -3 -55 -15 -55 -11
0 -15 -12 -15 -50 0 -27 -4 -50 -10 -50 -6 0 -10 -28 -10 -65 0 -51 -3 -65
-15 -65 -12 0 -15 -14 -15 -65 0 -51 -3 -65 -15 -65 -13 0 -15 -32 -15 -230 0
-147 -4 -230 -10 -230 -5 0 -10 -13 -10 -30 0 -16 -5 -30 -11 -30 -17 0 -39
-27 -39 -49 0 -12 -6 -21 -15 -21 -8 0 -15 -7 -15 -15 0 -8 -4 -15 -10 -15 -5
0 -10 -11 -10 -25 0 -16 -6 -25 -15 -25 -9 0 -15 -9 -15 -24 0 -13 -7 -26 -15
-30 -8 -3 -15 -15 -15 -26 0 -11 -4 -20 -10 -20 -5 0 -10 -11 -10 -25 0 -14 5
-25 10 -25 6 0 10 -7 10 -15 0 -13 23 -15 150 -15 l150 0 49 50 c45 46 91 66
91 40 0 -5 18 -10 40 -10 29 0 40 -4 40 -15 0 -9 9 -15 25 -15 14 0 25 -4 25
-10 0 -5 7 -10 15 -10 8 0 15 -7 15 -15 0 -10 11 -15 35 -15 35 0 50 22 23 33
-10 4 -10 7 -1 14 8 6 13 45 15 108 2 68 7 100 16 103 9 3 12 -22 12 -102 0
-88 -3 -106 -15 -106 -8 0 -15 -4 -15 -10 0 -5 7 -10 15 -10 8 0 15 5 15 10 0
6 11 10 25 10 16 0 25 6 25 15 0 11 11 15 40 15 22 0 40 5 40 10 0 6 11 10 25
10 14 0 25 -4 25 -10 0 -5 7 -10 15 -10 8 0 15 -5 15 -11 0 -14 25 -39 39 -39
6 0 11 -7 11 -15 0 -13 24 -15 155 -15 131 0 155 2 155 15 0 8 5 15 10 15 6 0
10 11 10 25 0 14 -4 25 -10 25 -5 0 -10 11 -10 25 0 16 -6 25 -15 25 -9 0 -15
9 -15 25 0 14 -4 25 -10 25 -5 0 -10 11 -10 25 0 16 -6 25 -15 25 -8 0 -15 7
-15 15 0 8 -7 15 -15 15 -9 0 -15 9 -15 21 0 22 -22 49 -39 49 -6 0 -11 14
-11 30 0 17 -4 30 -10 30 -6 0 -10 83 -10 230 0 198 -2 230 -15 230 -12 0 -15
14 -15 65 0 37 -4 65 -10 65 -6 0 -10 28 -10 65 0 51 -3 65 -15 65 -11 0 -15
12 -15 50 0 38 -4 50 -15 50 -12 0 -15 13 -15 55 0 30 -4 55 -10 55 -5 0 -10
11 -10 25 0 16 -6 25 -15 25 -9 0 -15 9 -15 25 0 14 -4 25 -10 25 -5 0 -10 11
-10 25 0 16 -6 25 -15 25 -8 0 -15 7 -15 15 0 8 -5 15 -11 15 -14 0 -39 25
-39 39 0 6 -11 11 -25 11 -14 0 -25 5 -25 10 0 6 -11 10 -25 10 -14 0 -25 -4
-25 -10 0 -5 -18 -10 -40 -10 -50 0 -53 18 -3 22 20 2 38 9 41 16 6 19 -174
17 -182 -3z m234 -50 c0 -8 -7 -15 -15 -15 -8 0 -15 7 -15 15 0 8 7 15 15 15
8 0 15 -7 15 -15z m-110 -1185 c0 -22 -4 -40 -10 -40 -5 0 -10 18 -10 40 0 22
5 40 10 40 6 0 10 -18 10 -40z m420 14 c0 -26 20 -54 39 -54 6 0 11 -11 11
-25 0 -14 5 -25 10 -25 6 0 10 -7 10 -15 0 -8 7 -15 15 -15 9 0 15 -9 15 -25
0 -16 6 -25 15 -25 9 0 15 -9 15 -25 0 -14 5 -25 10 -25 6 0 10 -11 10 -25 0
-16 6 -25 15 -25 9 0 15 -9 15 -25 0 -16 -6 -25 -15 -25 -9 0 -15 9 -15 25 0
16 -6 25 -15 25 -9 0 -15 9 -15 25 0 14 -4 25 -10 25 -5 0 -10 11 -10 25 0 16
-6 25 -15 25 -9 0 -15 9 -15 25 0 14 -4 25 -10 25 -5 0 -10 7 -10 15 0 8 -7
15 -15 15 -9 0 -15 9 -15 21 0 22 -22 49 -39 49 -6 0 -11 14 -11 30 0 20 5 30
15 30 9 0 15 -10 15 -26z"/>
<path d="M1480 1095 c0 -9 -9 -15 -25 -15 -14 0 -25 -4 -25 -10 0 -5 -11 -10
-25 -10 -16 0 -25 -6 -25 -15 0 -8 -7 -15 -15 -15 -9 0 -15 -9 -15 -25 0 -14
-4 -25 -10 -25 -5 0 -10 -11 -10 -25 0 -16 -6 -25 -15 -25 -12 0 -15 -14 -15
-65 0 -51 3 -65 15 -65 9 0 15 -9 15 -25 0 -14 5 -25 10 -25 6 0 10 -11 10
-25 0 -16 6 -25 15 -25 8 0 15 -7 15 -15 0 -9 9 -15 25 -15 14 0 25 -4 25 -10
0 -5 11 -10 25 -10 14 0 25 5 25 10 0 6 -11 10 -25 10 -16 0 -25 6 -25 15 0 9
-9 15 -25 15 -20 0 -25 5 -25 25 0 16 -6 25 -15 25 -9 0 -15 9 -15 25 0 14 -4
25 -10 25 -6 0 -10 28 -10 65 0 37 4 65 10 65 6 0 10 11 10 25 0 16 6 25 15
25 9 0 15 9 15 25 0 20 5 25 25 25 16 0 25 6 25 15 0 9 9 15 25 15 14 0 25 5
25 10 0 6 28 10 65 10 37 0 65 -4 65 -10 0 -5 11 -10 25 -10 16 0 25 -6 25
-15 0 -9 9 -15 25 -15 20 0 25 -5 25 -25 0 -16 6 -25 15 -25 9 0 15 -9 15 -25
0 -14 5 -25 10 -25 6 0 10 11 10 25 0 14 -4 25 -10 25 -5 0 -10 11 -10 25 0
16 -6 25 -15 25 -8 0 -15 7 -15 15 0 9 -9 15 -25 15 -14 0 -25 5 -25 10 0 6
-11 10 -25 10 -16 0 -25 6 -25 15 0 12 -14 15 -65 15 -51 0 -65 -3 -65 -15z"/>
<path d="M1770 865 c0 -37 4 -65 10 -65 6 0 10 28 10 65 0 37 -4 65 -10 65 -6
0 -10 -28 -10 -65z"/>
<path d="M1740 775 c0 -16 -6 -25 -15 -25 -9 0 -15 -9 -15 -25 0 -18 -5 -25
-20 -25 -11 0 -23 -7 -26 -15 -4 -8 -17 -15 -30 -15 -13 0 -24 -4 -24 -10 0
-5 11 -10 25 -10 14 0 25 5 25 10 0 6 11 10 25 10 16 0 25 6 25 15 0 8 7 15
15 15 9 0 15 9 15 25 0 14 5 25 10 25 6 0 10 11 10 25 0 14 -4 25 -10 25 -5 0
-10 -11 -10 -25z"/>
<path d="M1480 630 c0 -6 28 -10 65 -10 37 0 65 4 65 10 0 6 -28 10 -65 10
-37 0 -65 -4 -65 -10z"/>
<path d="M216 605 c-3 -8 -15 -15 -26 -15 -13 0 -20 -7 -20 -20 0 -11 -7 -23
-15 -26 -10 -4 -15 -21 -15 -54 0 -33 -5 -50 -15 -54 -11 -4 -15 -20 -15 -56
l0 -50 -35 0 c-19 0 -35 -4 -35 -10 0 -5 23 -10 50 -10 38 0 50 -4 50 -15 0
-8 -9 -15 -20 -15 -26 0 -66 -35 -51 -45 6 -3 14 1 17 9 8 21 54 21 54 1 0 -8
7 -15 15 -15 8 0 15 -4 15 -9 0 -5 10 -11 22 -13 25 -4 37 -28 14 -28 -9 0
-16 -7 -16 -15 0 -8 -4 -15 -10 -15 -5 0 -10 -9 -10 -20 0 -11 -7 -23 -15 -26
-8 -4 -15 -17 -15 -30 0 -15 -6 -24 -15 -24 -9 0 -15 -9 -15 -25 l0 -25 220 0
220 0 0 40 c0 22 -4 40 -10 40 -5 0 -10 16 -10 35 0 24 -5 35 -15 35 -8 0 -15
5 -15 10 0 16 38 50 56 50 18 0 44 23 44 39 0 6 11 11 25 11 14 0 25 5 25 10
0 6 -4 10 -10 10 -5 0 -10 7 -10 15 0 9 9 15 25 15 14 0 25 5 25 10 0 6 -11
10 -25 10 -24 0 -25 3 -25 55 0 42 -3 55 -15 55 -11 0 -15 12 -15 50 0 28 -4
50 -10 50 -5 0 -10 11 -10 25 0 16 -6 25 -15 25 -8 0 -15 7 -15 15 0 10 -10
15 -30 15 -22 0 -41 -11 -70 -40 -25 -25 -49 -40 -65 -40 -16 0 -40 15 -65 40
-42 42 -92 54 -104 25z m154 -150 c0 -11 11 -15 40 -15 29 0 40 4 40 15 0 11
12 15 50 15 38 0 50 -4 50 -15 0 -8 7 -15 15 -15 8 0 15 -7 15 -15 0 -8 5 -15
10 -15 6 0 10 -27 10 -60 0 -54 -3 -64 -30 -90 -17 -17 -40 -30 -50 -30 -11 0
-20 -4 -20 -10 0 -6 -42 -10 -105 -10 -63 0 -105 4 -105 10 0 6 -11 10 -25 10
-14 0 -25 5 -25 11 0 14 -25 39 -39 39 -17 0 -13 77 4 84 9 3 15 18 15 36 0
50 26 70 92 70 45 0 58 -3 58 -15z"/>
<path d="M290 375 c0 -24 5 -35 15 -35 10 0 15 11 15 35 0 24 -5 35 -15 35
-10 0 -15 -11 -15 -35z"/>
<path d="M500 375 c0 -24 5 -35 15 -35 10 0 15 11 15 35 0 24 -5 35 -15 35
-10 0 -15 -11 -15 -35z"/>
<path d="M370 320 c0 -5 18 -10 40 -10 22 0 40 5 40 10 0 6 -18 10 -40 10 -22
0 -40 -4 -40 -10z"/>
<path d="M660 245 c0 -8 5 -15 10 -15 6 0 10 7 10 15 0 8 -4 15 -10 15 -5 0
-10 -7 -10 -15z"/>
</g>
</svg>
